<svg width="630" height="630" viewBox="0 0 630 630" fill="none" xmlns="http://www.w3.org/2000/svg">
<rect width="630" height="630" fill="white"/>
<path fill-rule="evenodd" clip-rule="evenodd" d="M227.584 59H400.982L554.044 212.091V506.071C554.044 541.769 524.842 571 489.115 571H227.585C191.887 571 162.685 541.769 162.685 506.071V123.929C162.685 88.231 191.887 59 227.584 59Z" fill="#E5252A"/>
<path fill-rule="evenodd" clip-rule="evenodd" d="M400.982 59L554.044 212.091H417.485C408.385 212.091 400.982 204.659 400.982 195.559V59Z" fill="#B71D21"/>
<path fill-rule="evenodd" clip-rule="evenodd" d="M110.245 191H363.755C369.393 191 374 195.628 374 201.291V294.709C374 300.372 369.393 305 363.755 305H110.245C104.607 305 100 300.372 100 294.709V201.291C100 195.628 104.608 191 110.245 191Z" fill="#B71D21"/>
<path d="M172.179 210H152.97C151.386 210 149.868 210.63 148.748 211.751C147.629 212.872 147 214.393 147 215.979V280.021C147 281.607 147.629 283.128 148.748 284.249C149.868 285.37 151.386 286 152.97 286C154.553 286 156.071 285.37 157.191 284.249C158.31 283.128 158.939 281.607 158.939 280.021V261.259H172.178C186.061 261.259 197.357 249.946 197.357 236.042V235.217C197.357 221.312 186.062 210 172.179 210ZM185.418 236.042C185.418 243.353 179.479 249.301 172.179 249.301H158.939V221.957H172.178C179.478 221.957 185.417 227.905 185.417 235.216V236.042H185.418ZM236.419 210H217.211C215.628 210 214.109 210.63 212.99 211.751C211.87 212.872 211.241 214.393 211.241 215.979V280.021C211.241 281.607 211.87 283.128 212.99 284.249C214.109 285.37 215.628 286 217.211 286H236.419C250.303 286 261.598 274.688 261.598 260.784V235.217C261.598 221.312 250.303 210 236.419 210ZM249.659 260.783C249.659 268.094 243.719 274.042 236.419 274.042H223.181V221.957H236.419C243.719 221.957 249.659 227.905 249.659 235.216V260.783ZM288.583 221.958V238.508H316.255C317.838 238.508 319.357 239.138 320.476 240.259C321.596 241.381 322.225 242.901 322.225 244.487C322.225 246.073 321.596 247.593 320.476 248.715C319.357 249.836 317.838 250.466 316.255 250.466H288.583V280.021C288.583 281.607 287.954 283.128 286.834 284.249C285.715 285.37 284.196 286 282.613 286C281.03 286 279.511 285.37 278.392 284.249C277.272 283.128 276.643 281.607 276.643 280.021V215.979C276.643 214.393 277.272 212.872 278.392 211.751C279.511 210.63 281.03 210 282.613 210H321.03C322.614 210 324.132 210.63 325.252 211.751C326.371 212.872 327 214.393 327 215.979C327 217.564 326.371 219.085 325.252 220.206C324.132 221.328 322.614 221.958 321.03 221.958H288.583Z" fill="white"/>
<path d="M233 357.091C233 351.568 237.477 347.091 243 347.091H293C298.523 347.091 303 351.568 303 357.091V407.091C303 412.613 298.523 417.091 293 417.091H243C237.477 417.091 233 412.613 233 407.091V357.091Z" fill="white"/>
<path fill-rule="evenodd" clip-rule="evenodd" d="M285.084 378.965C285.084 379.771 284.431 380.424 283.625 380.424H271.125C270.32 380.424 269.667 379.771 269.667 378.965V366.465C269.667 365.66 270.32 365.007 271.125 365.007C271.931 365.007 272.584 365.66 272.584 366.465V377.507H283.625C284.431 377.507 285.084 378.16 285.084 378.965Z" fill="#EE6C4D"/>
<path fill-rule="evenodd" clip-rule="evenodd" d="M270.094 379.997C269.524 379.427 269.524 378.504 270.094 377.934L285.719 362.309C286.288 361.74 287.212 361.74 287.781 362.309C288.351 362.879 288.351 363.802 287.781 364.372L272.156 379.997C271.587 380.566 270.663 380.566 270.094 379.997Z" fill="#EE6C4D"/>
<path fill-rule="evenodd" clip-rule="evenodd" d="M264.875 399.174C264.069 399.174 263.416 398.521 263.416 397.716V386.674H252.375C251.569 386.674 250.916 386.021 250.916 385.216C250.916 384.41 251.569 383.758 252.375 383.758H264.875C265.68 383.758 266.333 384.41 266.333 385.216V397.716C266.333 398.521 265.68 399.174 264.875 399.174Z" fill="#EE6C4D"/>
<path fill-rule="evenodd" clip-rule="evenodd" d="M248.219 401.872C247.649 401.302 247.649 400.379 248.219 399.809L263.844 384.184C264.413 383.615 265.337 383.615 265.906 384.184C266.476 384.754 266.476 385.677 265.906 386.247L250.281 401.872C249.712 402.441 248.788 402.441 248.219 401.872Z" fill="#EE6C4D"/>
<path d="M413 357C413 351.477 417.477 347 423 347H473C478.523 347 483 351.477 483 357V407C483 412.523 478.523 417 473 417H423C417.477 417 413 412.523 413 407V357Z" fill="white"/>
<path d="M448 393.146C449.876 393.146 451.396 391.625 451.396 389.75C451.396 387.874 449.876 386.354 448 386.354C446.125 386.354 444.604 387.874 444.604 389.75C444.604 391.625 446.125 393.146 448 393.146Z" fill="#4A7AAB"/>
<path d="M461.083 376.854V374.25C461.083 368.625 459.729 361.167 448 361.167C436.271 361.167 434.917 368.625 434.917 374.25V376.854C429.083 377.583 427.167 380.542 427.167 387.812V391.687C427.167 400.229 429.771 402.833 438.313 402.833H457.688C466.229 402.833 468.833 400.229 468.833 391.687V387.812C468.833 380.542 466.917 377.583 461.083 376.854ZM448 396.042C444.521 396.042 441.708 393.208 441.708 389.75C441.708 386.271 444.542 383.458 448 383.458C451.458 383.458 454.292 386.292 454.292 389.75C454.292 393.229 451.479 396.042 448 396.042ZM438.313 376.667C438.146 376.667 438 376.667 437.833 376.667V374.25C437.833 368.146 439.563 364.083 448 364.083C456.438 364.083 458.167 368.146 458.167 374.25V376.687C458 376.687 457.854 376.687 457.688 376.687H438.313V376.667Z" fill="#4A7AAB"/>
<path d="M323 357C323 351.477 327.477 347 333 347H383C388.523 347 393 351.477 393 357V407C393 412.523 388.523 417 383 417H333C327.477 417 323 412.523 323 407V357Z" fill="white"/>
<path d="M376.563 380.167V371.021C376.563 369.312 375.271 367.375 373.667 366.729L362.063 361.979C359.458 360.917 356.521 360.917 353.917 361.979L342.313 366.729C340.729 367.375 339.438 369.312 339.438 371.021V380.167C339.438 390.354 346.833 399.896 356.938 402.687C357.625 402.875 358.375 402.875 359.063 402.687C369.167 399.896 376.563 390.354 376.563 380.167ZM359.563 383.812V389.292C359.563 390.146 358.854 390.854 358 390.854C357.146 390.854 356.438 390.146 356.438 389.292V383.812C354.333 383.146 352.792 381.187 352.792 378.875C352.792 376 355.125 373.667 358 373.667C360.875 373.667 363.208 376 363.208 378.875C363.208 381.208 361.667 383.146 359.563 383.812Z" fill="#00920E"/>
<path d="M233 447.091C233 441.568 237.477 437.091 243 437.091H293C298.523 437.091 303 441.568 303 447.091V497.091C303 502.613 298.523 507.091 293 507.091H243C237.477 507.091 233 502.613 233 497.091V447.091Z" fill="white"/>
<path fill-rule="evenodd" clip-rule="evenodd" d="M251.854 457.507C251.854 456.644 252.554 455.945 253.417 455.945H272.375C276.434 455.945 279.6 456.429 281.631 458.46C283.662 460.49 284.146 463.656 284.146 467.716V486.674C284.146 487.537 283.446 488.236 282.583 488.236H263.625C259.566 488.236 256.4 487.752 254.369 485.721C252.338 483.691 251.854 480.525 251.854 476.466V457.507ZM254.979 459.07V476.466C254.979 480.531 255.537 482.47 256.579 483.512C257.621 484.554 259.559 485.111 263.625 485.111H281.021V467.716C281.021 463.65 280.463 461.711 279.421 460.669C278.379 459.627 276.441 459.07 272.375 459.07H254.979Z" fill="#4A7AAB"/>
<path fill-rule="evenodd" clip-rule="evenodd" d="M253.417 449.695C254.28 449.695 254.979 450.394 254.979 451.257V457.507C254.979 458.37 254.28 459.07 253.417 459.07C252.554 459.07 251.854 458.37 251.854 457.507V451.257C251.854 450.394 252.554 449.695 253.417 449.695Z" fill="#4A7AAB"/>
<path fill-rule="evenodd" clip-rule="evenodd" d="M245.604 457.507C245.604 456.644 246.304 455.945 247.167 455.945H253.417C254.28 455.945 254.979 456.644 254.979 457.507C254.979 458.37 254.28 459.07 253.417 459.07H247.167C246.304 459.07 245.604 458.37 245.604 457.507Z" fill="#4A7AAB"/>
<path fill-rule="evenodd" clip-rule="evenodd" d="M282.583 485.111C283.446 485.111 284.146 485.811 284.146 486.674V492.924C284.146 493.787 283.446 494.486 282.583 494.486C281.72 494.486 281.021 493.787 281.021 492.924V486.674C281.021 485.811 281.72 485.111 282.583 485.111Z" fill="#4A7AAB"/>
<path fill-rule="evenodd" clip-rule="evenodd" d="M281.021 486.674C281.021 485.811 281.72 485.111 282.583 485.111H288.833C289.696 485.111 290.396 485.811 290.396 486.674C290.396 487.537 289.696 488.236 288.833 488.236H282.583C281.72 488.236 281.021 487.537 281.021 486.674Z" fill="#4A7AAB"/>
<path d="M323 447.091C323 441.568 327.477 437.091 333 437.091H383C388.523 437.091 393 441.568 393 447.091V497.091C393 502.613 388.523 507.091 383 507.091H333C327.477 507.091 323 502.613 323 497.091V447.091Z" fill="white"/>
<path d="M358.198 465.117L353.964 455.264C353.193 453.46 352.043 452.437 350.731 452.369C349.432 452.302 348.174 453.204 347.214 454.927L344.643 459.517C344.102 460.487 343.331 461.066 342.493 461.133C341.64 461.214 340.788 460.769 340.098 459.894L339.801 459.517C338.84 458.319 337.65 457.741 336.432 457.862C335.215 457.983 334.173 458.817 333.483 460.177L331.143 464.821C330.304 466.504 330.385 468.456 331.373 470.044C332.36 471.633 334.078 472.589 335.959 472.589H353.22C355.033 472.589 356.723 471.687 357.725 470.179C358.753 468.671 358.915 466.773 358.198 465.117Z" fill="#DAB400"/>
<path d="M337.839 453.756C340.364 453.756 342.411 451.719 342.411 449.206C342.411 446.693 340.364 444.656 337.839 444.656C335.314 444.656 333.266 446.693 333.266 449.206C333.266 451.719 335.314 453.756 337.839 453.756Z" fill="#DAB400"/>
<path d="M358 480.187C358 475.716 361.625 472.091 366.097 472.091H384.903C389.375 472.091 393 475.716 393 480.187V498.994C393 503.466 389.375 507.091 384.903 507.091H366.097C361.625 507.091 358 503.466 358 498.994V480.187Z" fill="#FFD400"/>
<path d="M371.687 485.565L385.269 499.054L385.269 488.258" stroke="white" stroke-width="2.6989" stroke-linecap="round" stroke-linejoin="round"/>
<path d="M385.269 499.053L374.42 499.053" stroke="white" stroke-width="2.6989" stroke-linecap="round" stroke-linejoin="round"/>
<path d="M413 447.091C413 441.568 417.477 437.091 423 437.091H473C478.523 437.091 483 441.568 483 447.091V497.091C483 502.613 478.523 507.091 473 507.091H423C417.477 507.091 413 502.613 413 497.091V447.091Z" fill="white"/>
<path fill-rule="evenodd" clip-rule="evenodd" d="M431.657 455.747C429.75 457.655 428.729 460.786 428.729 465.841V467.882C428.729 468.745 428.03 469.445 427.167 469.445C426.304 469.445 425.604 468.745 425.604 467.882V465.841C425.604 460.478 426.667 456.318 429.447 453.538C432.227 450.758 436.388 449.695 441.75 449.695H454.25C459.612 449.695 463.773 450.758 466.553 453.538C469.333 456.318 470.396 460.478 470.396 465.841V478.341C470.396 483.703 469.333 487.863 466.553 490.643C463.773 493.423 459.612 494.486 454.25 494.486H452.167C451.304 494.486 450.604 493.787 450.604 492.924C450.604 492.061 451.304 491.361 452.167 491.361H454.25C459.304 491.361 462.436 490.341 464.343 488.434C466.25 486.526 467.271 483.395 467.271 478.341V465.841C467.271 460.786 466.25 457.655 464.343 455.747C462.436 453.84 459.304 452.82 454.25 452.82H441.75C436.696 452.82 433.564 453.84 431.657 455.747Z" fill="#EE6C4D"/>
<path fill-rule="evenodd" clip-rule="evenodd" d="M460 470.007C460 470.87 459.3 471.57 458.438 471.57H450.083C449.452 471.57 448.882 471.189 448.64 470.606C448.398 470.022 448.531 469.35 448.977 468.903L459.415 458.445C460.024 457.834 461.014 457.833 461.625 458.443C462.235 459.052 462.236 460.042 461.627 460.652L453.85 468.445H458.438C459.3 468.445 460 469.144 460 470.007Z" fill="#EE6C4D"/>
<path fill-rule="evenodd" clip-rule="evenodd" d="M450.083 471.57C449.22 471.57 448.521 470.87 448.521 470.007V461.653C448.521 460.79 449.22 460.09 450.083 460.09C450.946 460.09 451.646 460.79 451.646 461.653V470.007C451.646 470.87 450.946 471.57 450.083 471.57Z" fill="#EE6C4D"/>
<path fill-rule="evenodd" clip-rule="evenodd" d="M429.795 476.802C429.177 477.42 428.729 478.547 428.729 480.736V486.361C428.729 488.551 429.177 489.677 429.795 490.296C430.413 490.914 431.54 491.361 433.729 491.361H439.354C441.544 491.361 442.67 490.914 443.288 490.296C443.907 489.677 444.354 488.551 444.354 486.361V480.736C444.354 478.547 443.907 477.42 443.288 476.802C442.67 476.184 441.544 475.736 439.354 475.736H433.729C431.54 475.736 430.413 476.184 429.795 476.802ZM427.585 474.592C429.076 473.101 431.231 472.611 433.729 472.611H439.354C441.852 472.611 444.007 473.101 445.498 474.592C446.989 476.083 447.479 478.238 447.479 480.736V486.361C447.479 488.859 446.989 491.014 445.498 492.505C444.007 493.996 441.852 494.486 439.354 494.486H433.729C431.231 494.486 429.076 493.996 427.585 492.505C426.094 491.014 425.604 488.859 425.604 486.361V480.736C425.604 478.238 426.094 476.083 427.585 474.592Z" fill="#EE6C4D"/>
</svg>
